<svg width="582" height="342" viewBox="0 0 582 342" fill="none" xmlns="http://www.w3.org/2000/svg">
<path d="M297.075 339.328C298.254 333.144 301.913 327.475 307.052 323.855" stroke="#04D361" stroke-width="0.779" stroke-miterlimit="10"/>
<path d="M296.916 341.067C297.137 335.903 299.131 323.474 303.844 315.693" stroke="#04D361" stroke-width="0.779" stroke-miterlimit="10"/>
<path d="M296.987 340.428C297.802 331.219 297.731 321.043 296.296 311.905" stroke="#04D361" stroke-width="0.779" stroke-miterlimit="10"/>
<path d="M307.814 321.458L307.814 321.458C307.769 321.539 307.723 321.62 307.677 321.701C307.044 322.82 306.411 323.938 305.634 324.997C305.828 324.93 306.031 324.852 306.244 324.767C306.358 324.722 306.476 324.673 306.596 324.624C306.847 324.522 307.104 324.417 307.348 324.326C307.711 324.191 308.088 324.07 308.44 324.017L308.441 324.017C310.069 323.778 311.73 323.844 313.327 324.052L313.327 324.052C314.572 324.214 315.814 324.461 317.036 324.703C317.432 324.782 317.827 324.861 318.219 324.936C319.831 325.244 321.417 325.499 323.015 325.52L323.015 325.52C323.922 325.533 324.884 325.415 325.696 325.102C326.504 324.791 327.126 324.302 327.442 323.591L327.442 323.589C327.962 322.425 327.427 320.887 326.339 319.981L326.337 319.98C325.259 319.076 323.78 318.716 322.251 318.569L322.251 318.569C321.694 318.514 321.138 318.486 320.568 318.457C320.357 318.447 320.145 318.436 319.93 318.424C319.143 318.379 318.336 318.316 317.536 318.163L317.535 318.163C317.058 318.07 316.586 317.947 316.128 317.825C316.056 317.805 315.984 317.786 315.912 317.767C315.527 317.663 315.152 317.562 314.778 317.476C313.891 317.273 313.061 317.171 312.25 317.328L307.814 321.458ZM307.814 321.458L307.816 321.456M307.814 321.458L307.816 321.456M307.816 321.456C308.904 319.515 310.305 317.707 312.25 317.329L307.816 321.456Z" fill="#04D361" stroke="#04D361"/>
<path d="M313.778 301.243L313.778 301.243C310.478 302.167 308.144 305.25 306.629 308.538C306.555 308.699 306.438 308.945 306.29 309.256C305.83 310.22 305.075 311.804 304.422 313.366C303.99 314.398 303.614 315.396 303.401 316.178C303.343 316.392 303.3 316.582 303.27 316.747C303.865 316.244 304.431 315.625 305.017 314.963C305.094 314.876 305.171 314.788 305.249 314.699C305.965 313.887 306.717 313.033 307.554 312.366C309.846 310.534 312.623 309.119 315.615 308.887L313.778 301.243ZM313.778 301.243C315.178 300.851 316.637 300.867 318.163 301.003C318.683 301.049 319.219 301.11 319.764 301.173C320.781 301.29 321.826 301.41 322.843 301.439L322.845 301.439C323.333 301.451 323.831 301.443 324.317 301.435C324.554 301.431 324.788 301.427 325.017 301.426C325.727 301.421 326.414 301.439 327.089 301.54M313.778 301.243L327.089 301.54M327.089 301.54C328.434 301.742 329.712 302.344 330.339 303.403L330.34 303.404C330.823 304.216 330.85 305.209 330.517 306.167C330.184 307.127 329.503 308.005 328.65 308.546C326.895 309.658 324.64 309.737 322.425 309.492C321.782 309.42 321.166 309.329 320.539 309.237C320.063 309.166 319.581 309.095 319.079 309.031C317.948 308.888 316.791 308.794 315.616 308.887L327.089 301.54ZM303.241 317.348C303.241 317.348 303.241 317.347 303.241 317.346L303.241 317.348Z" fill="#04D361" stroke="#04D361"/>
<path d="M298.496 303.051L298.496 303.051C298.227 301.389 297.466 299.866 296.63 298.279C296.571 298.168 296.512 298.056 296.453 297.945C295.68 296.482 294.871 294.953 294.464 293.287C294.135 291.958 294.074 290.592 294.016 289.284L294.013 289.228C293.953 287.885 293.892 286.601 293.579 285.368L298.496 303.051ZM298.496 303.051C298.78 304.791 298.491 306.578 297.946 308.302C297.906 308.426 297.859 308.581 297.805 308.76C297.641 309.304 297.413 310.061 297.132 310.777C296.945 311.251 296.746 311.677 296.544 311.989C296.443 312.145 296.351 312.256 296.271 312.329C296.19 312.403 296.146 312.415 296.14 312.416L296.139 312.416C296.043 312.435 295.841 312.407 295.515 312.244C295.206 312.09 294.86 311.853 294.508 311.576C293.808 311.022 293.149 310.358 292.83 310.025C291.855 308.997 291.079 307.787 290.599 306.464L290.599 306.462C290.038 304.935 289.843 303.302 289.649 301.599C289.645 301.561 289.641 301.524 289.637 301.486C289.449 299.838 289.255 298.125 288.688 296.498L288.688 296.498C288.043 294.655 286.944 293.007 285.893 291.43C285.617 291.016 285.344 290.607 285.084 290.2C283.807 288.207 282.728 286.078 282.744 283.847C282.761 281.61 284.181 279.364 286.212 279.003L286.213 279.003C287.553 278.763 288.981 279.325 290.164 280.222L290.165 280.223M298.496 303.051L290.165 280.223M290.165 280.223C291.836 281.484 293.057 283.33 293.578 285.368L290.165 280.223Z" fill="#04D361" stroke="#04D361"/>
<path d="M296.898 339.559C296.296 331.423 294.205 322.232 289.66 315.463" stroke="#04D361" stroke-width="0.779" stroke-miterlimit="10"/>
<path d="M288.551 309.348L288.551 309.35C289.201 311.164 289.603 313.064 289.938 314.981L289.938 314.982C289.956 315.084 289.987 315.214 290.017 315.342C290.029 315.391 290.04 315.44 290.051 315.487C290.093 315.67 290.131 315.858 290.152 316.036C290.173 316.217 290.172 316.361 290.151 316.464C290.131 316.562 290.103 316.583 290.098 316.586L290.098 316.586L290.098 316.586L290.098 316.586C290.097 316.587 290.064 316.613 289.944 316.595C289.821 316.576 289.661 316.519 289.476 316.424C289.11 316.236 288.75 315.954 288.568 315.792C288.242 315.493 287.953 315.148 287.664 314.772C287.561 314.639 287.455 314.498 287.346 314.353C287.159 314.103 286.965 313.844 286.77 313.604L286.77 313.603C284.132 310.36 279.966 308.801 275.945 308.225C273.932 307.936 271.909 307.861 269.902 307.828C269.371 307.82 268.843 307.814 268.316 307.809C266.84 307.794 265.377 307.778 263.914 307.697L263.911 307.697C263.001 307.652 262.184 307.553 261.581 307.124C260.794 306.561 260.464 305.407 260.706 304.352C260.947 303.309 261.666 302.383 262.555 301.62L262.556 301.62C264.518 299.933 267.126 299.082 269.758 298.91C272.39 298.737 275.05 299.21 277.648 299.914L277.648 299.914C280.153 300.591 282.592 301.5 284.509 303.113C286.405 304.715 287.701 306.953 288.551 309.348Z" fill="#04D361" stroke="#04D361"/>
<path d="M296.73 340.428C296.376 333.331 293.186 326.41 288.03 321.531" stroke="#04D361" stroke-width="0.779" stroke-miterlimit="10"/>
<path d="M285.322 317.82C283.541 316.872 281.523 316.254 279.531 315.696L285.322 317.82ZM285.322 317.82C285.457 317.892 285.579 317.957 285.699 318.029L285.699 318.029L285.71 318.036C286.482 318.472 286.997 319.232 287.567 320.101C287.632 320.2 287.732 320.403 287.868 320.696C287.91 320.784 287.953 320.88 287.999 320.98C288.095 321.189 288.2 321.417 288.305 321.637C288.333 321.694 288.362 321.753 288.39 321.811C285.998 321.161 283.37 321.186 281.072 321.208L281.044 321.208C281.044 321.208 281.044 321.208 281.043 321.208M285.322 317.82L281.043 321.208M281.043 321.208C277.884 321.236 274.724 321.823 271.769 322.963L271.767 322.964C271.375 323.117 270.993 323.276 270.616 323.432C269.18 324.028 267.828 324.589 266.368 324.669C265.884 324.693 265.37 324.623 264.956 324.448C264.546 324.274 264.276 324.017 264.169 323.68C264.001 323.128 264.292 322.471 264.792 321.804L264.792 321.804M281.043 321.208L264.792 321.804M264.792 321.804L264.793 321.802M264.792 321.804L264.793 321.802M264.793 321.802C265.781 320.472 267.056 319.381 268.375 318.256M264.793 321.802L268.375 318.256M268.375 318.256C270.094 316.795 271.796 315.392 273.834 314.995L268.375 318.256ZM289.058 322.012C288.851 321.638 288.643 321.183 288.456 320.777C288.268 320.367 288.103 320.007 287.985 319.828C287.427 318.976 286.851 318.106 285.956 317.601C285.824 317.521 285.691 317.45 285.558 317.379L289.058 322.012ZM273.834 314.995C275.666 314.64 277.579 315.149 279.531 315.696L273.834 314.995Z" fill="#04D361" stroke="#04D361"/>
<path d="M512.618 311.609L512.619 311.609C514.086 310.148 514.744 308.12 515.342 306.279C515.426 306.019 515.509 305.764 515.593 305.514C516.293 303.43 517.286 301.395 519.049 300.544C521.089 299.562 523.459 300.51 525.489 301.818C525.72 301.967 525.955 302.122 526.194 302.28C526.982 302.8 527.811 303.347 528.668 303.784C529.796 304.36 531.026 304.776 532.387 304.727C533.465 304.689 534.502 304.356 535.466 304.042L535.536 304.019C536.496 303.706 537.385 303.416 538.287 303.351C540.818 303.181 543.017 304.801 545.123 306.506L545.123 306.507C546.651 307.739 548.088 308.967 548.561 310.686L548.561 310.686C549.133 312.763 548.076 315.262 546.269 316.77L546.268 316.771C544.468 318.281 542.075 318.909 539.747 318.961L539.746 318.961C539.466 318.968 539.172 318.969 538.869 318.971C538.039 318.975 537.145 318.979 536.311 319.096C535.15 319.258 533.999 319.648 533.123 320.616L533.123 320.616C532.269 321.562 531.976 322.751 531.762 323.861C531.728 324.038 531.696 324.212 531.664 324.384C531.489 325.331 531.328 326.202 530.932 326.978C529.988 328.811 527.771 329.802 525.691 329.794C523.616 329.785 521.658 328.999 519.647 328.192L519.594 328.17C517.593 327.367 515.406 326.524 513.068 326.627C510.908 326.72 508.835 327.623 506.884 328.473C506.506 328.637 506.133 328.8 505.765 328.954L505.764 328.954C504.758 329.378 503.367 329.949 502.045 330.167C500.7 330.389 499.623 330.219 499.011 329.414L499.01 329.412C498.74 329.061 498.593 328.568 498.564 327.946C498.536 327.326 498.625 326.619 498.788 325.881C499.104 324.45 499.673 322.991 500.069 321.975C500.082 321.942 500.094 321.91 500.107 321.879C501.162 319.186 502.918 316.679 505.347 315.29C506.207 314.799 507.134 314.451 508.098 314.089C508.402 313.975 508.71 313.859 509.021 313.737C510.291 313.239 511.577 312.643 512.618 311.609Z" fill="#04D361" stroke="#04D361"/>
<path d="M499.039 329.477C510.831 319.337 524.59 312.621 539.439 309.764" stroke="white" stroke-width="0.7047" stroke-miterlimit="10" stroke-linecap="round" stroke-linejoin="round"/>
<path d="M510.698 313.88C510.973 310.536 510.344 307.049 511.442 303.882C513.4 298.239 520.187 295.294 521.888 289.571C523.926 282.731 517.706 275.749 518.787 268.696C519.239 265.724 520.949 263.106 522.012 260.294C523.075 257.482 523.35 253.959 521.286 251.768C519.124 249.479 515.199 249.745 512.629 251.573C510.06 253.401 508.581 256.364 507.376 259.283C506.18 262.202 505.125 265.253 503.096 267.675C499.402 272.085 492.757 274.019 490.737 279.404C488.681 284.887 492.571 290.689 493.262 296.5C493.785 300.901 492.447 305.284 491.251 309.56C490.064 313.836 489.009 318.361 490.099 322.655C491.552 328.377 496.7 332.024 501.634 328.351C506.516 324.74 510.193 320.171 510.698 313.88Z" fill="#04D361"/>
<path d="M498.507 329.752C496.549 309.329 501.032 287.176 511.504 269.539" stroke="white" stroke-width="1.1364" stroke-miterlimit="10" stroke-linecap="round" stroke-linejoin="round"/>
<path d="M485.466 322.051C483.313 319.008 482.081 315.202 479.157 312.887C475.808 310.225 471.166 310.199 466.913 309.853C462.652 309.507 457.85 308.3 455.874 304.503C454.793 302.418 454.793 299.943 454.04 297.725C453.207 295.285 451.506 293.262 450.31 290.982C449.123 288.702 448.494 285.801 449.876 283.627C451.276 281.427 454.341 280.779 456.848 281.489C459.356 282.199 461.411 283.964 463.289 285.774C465.168 287.584 467.002 289.518 469.314 290.707C473.15 292.668 477.704 292.304 482.01 292.118C486.316 291.94 491.012 292.118 494.343 294.868C497.081 297.13 498.33 300.688 499.446 304.068C501.059 308.903 502.707 313.721 504.275 318.574C505.241 321.555 507.083 326.124 503.982 328.466C498.516 332.591 488.62 326.496 485.466 322.051Z" fill="#04D361"/>
<path d="M502.255 328.643C495.415 312.745 480.938 299.206 463.609 293.236" stroke="white" stroke-width="0.8174" stroke-miterlimit="10" stroke-linecap="round" stroke-linejoin="round"/>
<path d="M108.198 327.913C110.156 324.994 111.29 321.25 113.922 319.112C116.943 316.673 121.098 316.992 124.925 316.948C128.744 316.912 133.059 316.051 134.866 312.361C135.858 310.338 135.867 307.836 136.567 305.645C137.329 303.24 138.871 301.324 139.96 299.106C141.041 296.888 141.626 294.005 140.412 291.707C139.172 289.383 136.434 288.504 134.184 289.037C131.934 289.569 130.073 291.201 128.381 292.887C126.689 294.573 125.032 296.391 122.941 297.42C119.486 299.124 115.41 298.414 111.547 297.908C107.684 297.412 103.476 297.252 100.472 299.78C98.0005 301.865 96.8576 305.37 95.821 308.697C94.3414 313.461 92.8264 318.207 91.3823 322.989C90.4963 325.935 88.8041 330.406 91.5683 333.006C96.4146 337.601 105.336 332.172 108.198 327.913Z" fill="#04D361"/>
<path d="M93.101 333.343C99.356 317.782 112.433 305.174 128.009 300.41" stroke="white" stroke-width="0.7781" stroke-miterlimit="10" stroke-linecap="round" stroke-linejoin="round"/>
<path d="M84.5248 319.742C84.3121 316.664 84.8083 313.461 83.9312 310.542C82.363 305.352 76.9231 302.646 75.5587 297.385C73.9285 291.095 78.9077 284.672 78.0483 278.177C77.685 275.445 76.3118 273.041 75.4612 270.45C74.6107 267.859 74.3892 264.621 76.046 262.607C77.7825 260.496 80.9188 260.744 82.9832 262.43C85.0386 264.115 86.2259 266.839 87.1916 269.518C88.1484 272.198 88.999 275.01 90.6203 277.237C93.5795 281.291 98.9042 283.066 100.517 288.025C102.165 293.073 99.046 298.405 98.4967 303.755C98.0803 307.81 99.1523 311.837 100.109 315.768C101.066 319.698 101.908 323.859 101.031 327.816C99.8699 333.077 95.7413 336.43 91.7898 333.059C87.8826 329.732 84.9323 325.527 84.5248 319.742Z" fill="#04D361"/>
<path d="M94.2882 334.336C95.8564 315.555 92.2593 295.176 83.878 278.949" stroke="white" stroke-width="0.9754" stroke-miterlimit="10" stroke-linecap="round" stroke-linejoin="round"/>
<path d="M34.2011 304.722C33.4834 307.801 34.9719 311.518 37.3197 313.825C39.6676 316.14 42.7153 317.214 45.6125 317.471L53.1965 319.973L53.5905 319.665C53.5904 319.665 53.5903 319.665 53.5902 319.665C52.5568 318.342 51.2004 317.733 49.7984 317.422C48.7878 317.198 47.7086 317.123 46.7032 317.053C46.343 317.028 45.9923 317.004 45.6577 316.973L45.6567 316.973C42.8461 316.723 39.9173 315.684 37.6708 313.469L37.6701 313.468C35.4109 311.248 34.0203 307.701 34.6879 304.836M34.2011 304.722L34.6878 304.836C34.6879 304.836 34.6879 304.836 34.6879 304.836M34.2011 304.722L34.688 304.836C34.688 304.836 34.688 304.836 34.6879 304.836M34.2011 304.722C34.7947 302.194 36.6641 300.526 38.4449 299.009C40.9168 296.897 43.7076 294.688 47.03 295.158C48.2001 295.322 49.3472 295.812 50.4926 296.301C51.7063 296.82 52.9181 297.337 54.1533 297.465M34.6879 304.836C35.2393 302.488 36.9763 300.917 38.7692 299.389L38.7697 299.389C41.2725 297.251 43.8938 295.219 46.96 295.653L46.9608 295.653C48.0638 295.808 49.1569 296.274 50.3256 296.774L50.3987 296.805C51.5664 297.303 52.8137 297.829 54.1017 297.962M54.1017 297.962L54.1533 297.465M54.1017 297.962C55.7301 298.131 57.1967 297.666 58.5411 296.977C59.5598 296.455 60.5431 295.783 61.4803 295.143C61.766 294.948 62.0474 294.756 62.3243 294.572L62.3253 294.571C64.7346 292.96 67.5852 291.848 70.1194 293.352M54.1017 297.962C54.1018 297.962 54.1018 297.962 54.1019 297.962L54.1533 297.465M54.1533 297.465C56.7923 297.739 59.0253 296.214 61.1799 294.743C61.4702 294.545 61.7591 294.347 62.0474 294.156L70.1194 293.352M70.1194 293.352C71.2147 294.006 72.0892 295.055 72.8042 296.321C73.5185 297.586 74.0576 299.038 74.496 300.46L74.4964 300.461C74.6064 300.815 74.715 301.175 74.8247 301.538C75.5896 304.074 76.4103 306.794 78.1754 308.829C79.429 310.281 80.9679 311.175 82.5104 311.945C82.8879 312.134 83.2631 312.314 83.6347 312.493C84.8046 313.055 85.9388 313.6 86.9949 314.333L86.9955 314.333C90.0053 316.417 92.2064 319.983 93.5513 323.743C93.569 323.792 93.587 323.843 93.6054 323.894C94.1032 325.291 94.8236 327.312 95.2398 329.281C95.4554 330.301 95.5847 331.288 95.5645 332.152C95.5442 333.022 95.3732 333.718 95.0376 334.203L95.0364 334.205C94.3036 335.274 92.9965 335.417 91.3616 335.012C89.7505 334.614 88.0484 333.73 86.8237 333.079L86.8233 333.079C86.3843 332.846 85.9392 332.602 85.4898 332.357C84.5181 331.825 83.5268 331.283 82.5358 330.814C81.0771 330.124 79.5649 329.564 77.9981 329.386L77.998 329.386C75.1922 329.069 72.5758 330.033 70.1844 330.97L70.1147 330.997C67.7165 331.937 65.3799 332.852 62.8674 332.693C60.3524 332.534 57.5831 331.023 56.3524 328.369L70.1194 293.352ZM70.1194 293.352C70.1193 293.352 70.1193 293.352 70.1192 293.352L70.3756 292.923L70.1203 293.352C70.12 293.352 70.1197 293.352 70.1194 293.352ZM86.589 333.52C86.1377 333.281 85.686 333.034 85.2334 332.786C82.8511 331.483 80.4434 330.166 77.9418 329.883C75.275 329.581 72.7677 330.495 70.3667 331.435L70.2513 331.481C67.8868 332.407 65.46 333.358 62.8359 333.192C60.1691 333.024 57.2188 331.427 55.8987 328.579L86.589 333.52ZM86.589 333.52C89.0254 334.816 93.6059 337.176 95.4488 334.487L86.589 333.52Z" fill="#04D361" stroke="#04D361"/>
<path d="M94.9262 334.124C80.4758 319.52 63.722 309.389 45.7543 304.385" stroke="white" stroke-width="0.8986" stroke-miterlimit="10" stroke-linecap="round" stroke-linejoin="round"/>
<path d="M508.98 69.5931C508.98 72.4055 506.703 74.6856 503.895 74.6856C501.086 74.6856 498.809 72.4055 498.809 69.5931C498.809 66.7807 501.086 64.5006 503.895 64.5006C506.694 64.5006 508.98 66.7807 508.98 69.5931Z" stroke="#04D361" stroke-width="2" stroke-miterlimit="10" stroke-linecap="round" stroke-linejoin="round"/>
<path d="M507.572 73.1064L511.159 76.7078" stroke="#04D361" stroke-width="2" stroke-miterlimit="10" stroke-linecap="round" stroke-linejoin="round"/>
<path d="M310.013 1L315.363 6.35772" stroke="#04D361" stroke-width="2" stroke-miterlimit="10" stroke-linecap="round" stroke-linejoin="round"/>
<path d="M315.363 1L310.013 6.35772" stroke="#04D361" stroke-width="2" stroke-miterlimit="10" stroke-linecap="round" stroke-linejoin="round"/>
<path d="M386.699 309.45L392.05 314.808" stroke="#04D361" stroke-width="2" stroke-miterlimit="10" stroke-linecap="round" stroke-linejoin="round"/>
<path d="M392.05 309.45L386.699 314.808" stroke="#04D361" stroke-width="2" stroke-miterlimit="10" stroke-linecap="round" stroke-linejoin="round"/>
<path d="M47.1578 238.45V246.027" stroke="#04D361" stroke-width="2" stroke-miterlimit="10" stroke-linecap="round" stroke-linejoin="round"/>
<path d="M50.9505 242.238H43.3754" stroke="#04D361" stroke-width="2" stroke-miterlimit="10" stroke-linecap="round" stroke-linejoin="round"/>
<path d="M30.7025 180.278C30.7025 182.815 28.647 184.883 26.1043 184.883C23.5704 184.883 21.506 182.824 21.506 180.278C21.506 177.741 23.5615 175.674 26.1043 175.674C28.647 175.682 30.7025 177.741 30.7025 180.278Z" stroke="#04D361" stroke-width="2" stroke-miterlimit="10" stroke-linecap="round" stroke-linejoin="round"/>
<path d="M221.555 291.645C221.555 294.182 219.5 296.249 216.957 296.249C214.423 296.249 212.359 294.191 212.359 291.645C212.359 289.107 214.414 287.04 216.957 287.04C219.5 287.049 221.555 289.107 221.555 291.645Z" stroke="#04D361" stroke-width="2" stroke-miterlimit="10" stroke-linecap="round" stroke-linejoin="round"/>
<path d="M525.004 208.719C525.004 211.256 522.949 213.323 520.406 213.323C517.872 213.323 515.808 211.265 515.808 208.719C515.808 206.182 517.863 204.114 520.406 204.114C522.949 204.123 525.004 206.182 525.004 208.719Z" stroke="#04D361" stroke-width="2" stroke-miterlimit="10" stroke-linecap="round" stroke-linejoin="round"/>
<path d="M2.83071 99.5845C2.83071 100.23 2.30832 100.752 1.66535 100.752C1.02239 100.752 0.5 100.23 0.5 99.5845C0.5 98.939 1.02239 98.4169 1.66535 98.4169C2.30832 98.4169 2.83071 98.939 2.83071 99.5845Z" fill="#9871F5" stroke="#9871F5"/>
<path d="M14.4637 99.5845C14.4637 100.23 13.9413 100.752 13.2983 100.752C12.6554 100.752 12.133 100.23 12.133 99.5845C12.133 98.939 12.6554 98.4169 13.2983 98.4169C13.9413 98.4169 14.4637 98.939 14.4637 99.5845Z" fill="#9871F5" stroke="#9871F5"/>
<path d="M26.0878 99.5845C26.0878 100.23 25.5654 100.752 24.9224 100.752C24.2795 100.752 23.7571 100.23 23.7571 99.5845C23.7571 98.939 24.2795 98.4169 24.9224 98.4169C25.5654 98.4169 26.0878 98.939 26.0878 99.5845Z" fill="#9871F5" stroke="#9871F5"/>
<path d="M37.7207 99.5845C37.7207 100.23 37.1983 100.752 36.5553 100.752C35.9123 100.752 35.39 100.23 35.39 99.5845C35.39 98.939 35.9123 98.4169 36.5553 98.4169C37.1983 98.4169 37.7207 98.939 37.7207 99.5845Z" fill="#9871F5" stroke="#9871F5"/>
<path d="M49.3447 99.5845C49.3447 100.23 48.8223 100.752 48.1793 100.752C47.5364 100.752 47.014 100.23 47.014 99.5845C47.014 98.939 47.5364 98.4169 48.1793 98.4169C48.8223 98.4169 49.3447 98.939 49.3447 99.5845Z" fill="#9871F5" stroke="#9871F5"/>
<path d="M60.9775 99.5845C60.9775 100.23 60.4551 100.752 59.8121 100.752C59.1692 100.752 58.6468 100.23 58.6468 99.5845C58.6468 98.939 59.1692 98.4169 59.8121 98.4169C60.4551 98.4169 60.9775 98.939 60.9775 99.5845Z" fill="#9871F5" stroke="#9871F5"/>
<path d="M2.83071 111.225C2.83071 111.87 2.30832 112.392 1.66535 112.392C1.02239 112.392 0.5 111.87 0.5 111.225C0.5 110.579 1.02239 110.057 1.66535 110.057C2.30832 110.057 2.83071 110.579 2.83071 111.225Z" fill="#9871F5" stroke="#9871F5"/>
<path d="M14.4637 111.225C14.4637 111.87 13.9413 112.392 13.2983 112.392C12.6554 112.392 12.133 111.87 12.133 111.225C12.133 110.579 12.6554 110.057 13.2983 110.057C13.9413 110.057 14.4637 110.579 14.4637 111.225Z" fill="#9871F5" stroke="#9871F5"/>
<path d="M26.0878 111.225C26.0878 111.87 25.5654 112.392 24.9224 112.392C24.2795 112.392 23.7571 111.87 23.7571 111.225C23.7571 110.579 24.2795 110.057 24.9224 110.057C25.5654 110.057 26.0878 110.579 26.0878 111.225Z" fill="#9871F5" stroke="#9871F5"/>
<path d="M37.7207 111.225C37.7207 111.87 37.1983 112.392 36.5553 112.392C35.9123 112.392 35.39 111.87 35.39 111.225C35.39 110.579 35.9123 110.057 36.5553 110.057C37.1983 110.057 37.7207 110.579 37.7207 111.225Z" fill="#9871F5" stroke="#9871F5"/>
<path d="M49.3447 111.225C49.3447 111.87 48.8223 112.392 48.1793 112.392C47.5364 112.392 47.014 111.87 47.014 111.225C47.014 110.579 47.5364 110.057 48.1793 110.057C48.8223 110.057 49.3447 110.579 49.3447 111.225Z" fill="#9871F5" stroke="#9871F5"/>
<path d="M60.9775 111.225C60.9775 111.87 60.4551 112.392 59.8121 112.392C59.1692 112.392 58.6468 111.87 58.6468 111.225C58.6468 110.579 59.1692 110.057 59.8121 110.057C60.4551 110.057 60.9775 110.579 60.9775 111.225Z" fill="#9871F5" stroke="#9871F5"/>
<path d="M2.83071 122.873C2.83071 123.519 2.30832 124.041 1.66535 124.041C1.02239 124.041 0.5 123.519 0.5 122.873C0.5 122.228 1.02239 121.706 1.66535 121.706C2.30832 121.706 2.83071 122.228 2.83071 122.873Z" fill="#9871F5" stroke="#9871F5"/>
<path d="M14.4637 122.873C14.4637 123.519 13.9413 124.041 13.2983 124.041C12.6554 124.041 12.133 123.519 12.133 122.873C12.133 122.228 12.6554 121.706 13.2983 121.706C13.9413 121.706 14.4637 122.228 14.4637 122.873Z" fill="#9871F5" stroke="#9871F5"/>
<path d="M26.0878 122.873C26.0878 123.519 25.5654 124.041 24.9224 124.041C24.2795 124.041 23.7571 123.519 23.7571 122.873C23.7571 122.228 24.2795 121.706 24.9224 121.706C25.5654 121.706 26.0878 122.228 26.0878 122.873Z" fill="#9871F5" stroke="#9871F5"/>
<path d="M37.7207 122.873C37.7207 123.519 37.1983 124.041 36.5553 124.041C35.9123 124.041 35.39 123.519 35.39 122.873C35.39 122.228 35.9123 121.706 36.5553 121.706C37.1983 121.706 37.7207 122.228 37.7207 122.873Z" fill="#9871F5" stroke="#9871F5"/>
<path d="M49.3447 122.873C49.3447 123.519 48.8223 124.041 48.1793 124.041C47.5364 124.041 47.014 123.519 47.014 122.873C47.014 122.228 47.5364 121.706 48.1793 121.706C48.8223 121.706 49.3447 122.228 49.3447 122.873Z" fill="#9871F5" stroke="#9871F5"/>
<path d="M60.9775 122.873C60.9775 123.519 60.4551 124.041 59.8121 124.041C59.1692 124.041 58.6468 123.519 58.6468 122.873C58.6468 122.228 59.1692 121.706 59.8121 121.706C60.4551 121.706 60.9775 122.228 60.9775 122.873Z" fill="#9871F5" stroke="#9871F5"/>
<path d="M2.83071 134.513C2.83071 135.159 2.30832 135.681 1.66535 135.681C1.02239 135.681 0.5 135.159 0.5 134.513C0.5 133.868 1.02239 133.346 1.66535 133.346C2.30832 133.346 2.83071 133.868 2.83071 134.513Z" fill="#9871F5" stroke="#9871F5"/>
<path d="M14.4637 134.513C14.4637 135.159 13.9413 135.681 13.2983 135.681C12.6554 135.681 12.133 135.159 12.133 134.513C12.133 133.868 12.6554 133.346 13.2983 133.346C13.9413 133.346 14.4637 133.868 14.4637 134.513Z" fill="#9871F5" stroke="#9871F5"/>
<path d="M26.0878 134.513C26.0878 135.159 25.5654 135.681 24.9224 135.681C24.2795 135.681 23.7571 135.159 23.7571 134.513C23.7571 133.868 24.2795 133.346 24.9224 133.346C25.5654 133.346 26.0878 133.868 26.0878 134.513Z" fill="#9871F5" stroke="#9871F5"/>
<path d="M37.7207 134.513C37.7207 135.159 37.1983 135.681 36.5553 135.681C35.9123 135.681 35.39 135.159 35.39 134.513C35.39 133.868 35.9123 133.346 36.5553 133.346C37.1983 133.346 37.7207 133.868 37.7207 134.513Z" fill="#9871F5" stroke="#9871F5"/>
<path d="M49.3447 134.513C49.3447 135.159 48.8223 135.681 48.1793 135.681C47.5364 135.681 47.014 135.159 47.014 134.513C47.014 133.868 47.5364 133.346 48.1793 133.346C48.8223 133.346 49.3447 133.868 49.3447 134.513Z" fill="#9871F5" stroke="#9871F5"/>
<path d="M60.9775 134.513C60.9775 135.159 60.4551 135.681 59.8121 135.681C59.1692 135.681 58.6468 135.159 58.6468 134.513C58.6468 133.868 59.1692 133.346 59.8121 133.346C60.4551 133.346 60.9775 133.868 60.9775 134.513Z" fill="#9871F5" stroke="#9871F5"/>
<path d="M182.285 318.903C182.285 319.549 181.762 320.071 181.119 320.071C180.476 320.071 179.954 319.549 179.954 318.903C179.954 318.258 180.476 317.736 181.119 317.736C181.762 317.736 182.285 318.258 182.285 318.903Z" fill="#9871F5" stroke="#9871F5"/>
<path d="M193.918 318.903C193.918 319.549 193.395 320.071 192.752 320.071C192.109 320.071 191.587 319.549 191.587 318.903C191.587 318.258 192.109 317.736 192.752 317.736C193.395 317.736 193.918 318.258 193.918 318.903Z" fill="#9871F5" stroke="#9871F5"/>
<path d="M205.542 318.903C205.542 319.549 205.019 320.071 204.376 320.071C203.733 320.071 203.211 319.549 203.211 318.903C203.211 318.258 203.733 317.736 204.376 317.736C205.019 317.736 205.542 318.258 205.542 318.903Z" fill="#9871F5" stroke="#9871F5"/>
<path d="M217.174 318.903C217.174 319.549 216.652 320.071 216.009 320.071C215.366 320.071 214.844 319.549 214.844 318.903C214.844 318.258 215.366 317.736 216.009 317.736C216.652 317.736 217.174 318.258 217.174 318.903Z" fill="#9871F5" stroke="#9871F5"/>
<path d="M228.799 318.903C228.799 319.549 228.276 320.071 227.633 320.071C226.99 320.071 226.468 319.549 226.468 318.903C226.468 318.258 226.99 317.736 227.633 317.736C228.276 317.736 228.799 318.258 228.799 318.903Z" fill="#9871F5" stroke="#9871F5"/>
<path d="M182.285 330.552C182.285 331.198 181.762 331.72 181.119 331.72C180.476 331.72 179.954 331.198 179.954 330.552C179.954 329.907 180.476 329.385 181.119 329.385C181.762 329.385 182.285 329.907 182.285 330.552Z" fill="#9871F5" stroke="#9871F5"/>
<path d="M193.918 330.552C193.918 331.198 193.395 331.72 192.752 331.72C192.109 331.72 191.587 331.198 191.587 330.552C191.587 329.907 192.109 329.385 192.752 329.385C193.395 329.385 193.918 329.907 193.918 330.552Z" fill="#9871F5" stroke="#9871F5"/>
<path d="M205.542 330.552C205.542 331.198 205.019 331.72 204.376 331.72C203.733 331.72 203.211 331.198 203.211 330.552C203.211 329.907 203.733 329.385 204.376 329.385C205.019 329.385 205.542 329.907 205.542 330.552Z" fill="#9871F5" stroke="#9871F5"/>
<path d="M217.174 330.552C217.174 331.198 216.652 331.72 216.009 331.72C215.366 331.72 214.844 331.198 214.844 330.552C214.844 329.907 215.366 329.385 216.009 329.385C216.652 329.385 217.174 329.907 217.174 330.552Z" fill="#9871F5" stroke="#9871F5"/>
<path d="M228.799 330.552C228.799 331.198 228.276 331.72 227.633 331.72C226.99 331.72 226.468 331.198 226.468 330.552C226.468 329.907 226.99 329.385 227.633 329.385C228.276 329.385 228.799 329.907 228.799 330.552Z" fill="#9871F5" stroke="#9871F5"/>
<path d="M476.983 27.62C476.983 28.2655 476.461 28.7877 475.818 28.7877C475.175 28.7877 474.652 28.2655 474.652 27.62C474.652 26.9745 475.175 26.4524 475.818 26.4524C476.461 26.4524 476.983 26.9745 476.983 27.62Z" fill="#9871F5" stroke="#9871F5"/>
<path d="M488.607 27.62C488.607 28.2655 488.085 28.7877 487.442 28.7877C486.799 28.7877 486.276 28.2655 486.276 27.62C486.276 26.9745 486.799 26.4524 487.442 26.4524C488.085 26.4524 488.607 26.9745 488.607 27.62Z" fill="#9871F5" stroke="#9871F5"/>
<path d="M500.24 27.62C500.24 28.2656 499.718 28.7877 499.075 28.7877C498.432 28.7877 497.909 28.2655 497.909 27.62C497.909 26.9745 498.432 26.4524 499.075 26.4524C499.718 26.4524 500.24 26.9745 500.24 27.62Z" fill="#9871F5" stroke="#9871F5"/>
<path d="M476.983 39.2689C476.983 39.9145 476.461 40.4366 475.818 40.4366C475.175 40.4366 474.652 39.9145 474.652 39.2689C474.652 38.6234 475.175 38.1013 475.818 38.1013C476.461 38.1013 476.983 38.6234 476.983 39.2689Z" fill="#9871F5" stroke="#9871F5"/>
<path d="M488.607 39.2689C488.607 39.9145 488.085 40.4366 487.442 40.4366C486.799 40.4366 486.276 39.9145 486.276 39.2689C486.276 38.6234 486.799 38.1013 487.442 38.1013C488.085 38.1013 488.607 38.6234 488.607 39.2689Z" fill="#9871F5" stroke="#9871F5"/>
<path d="M500.24 39.2689C500.24 39.9145 499.718 40.4366 499.075 40.4366C498.432 40.4366 497.909 39.9145 497.909 39.2689C497.909 38.6234 498.432 38.1013 499.075 38.1013C499.718 38.1013 500.24 38.6234 500.24 39.2689Z" fill="#9871F5" stroke="#9871F5"/>
<path d="M172.528 5.58255C172.528 6.22807 172.006 6.75018 171.363 6.75018C170.72 6.75018 170.197 6.22805 170.197 5.58255C170.197 4.93705 170.72 4.41492 171.363 4.41492C172.006 4.41492 172.528 4.93702 172.528 5.58255Z" fill="#9871F5" stroke="#9871F5"/>
<path d="M184.152 5.58255C184.152 6.22806 183.63 6.75018 182.987 6.75018C182.344 6.75018 181.821 6.22806 181.821 5.58255C181.821 4.93704 182.344 4.41492 182.987 4.41492C183.63 4.41492 184.152 4.93704 184.152 5.58255Z" fill="#9871F5" stroke="#9871F5"/>
<path d="M195.785 5.58255C195.785 6.22808 195.263 6.75018 194.62 6.75018C193.977 6.75018 193.454 6.22806 193.454 5.58255C193.454 4.93704 193.977 4.41492 194.62 4.41492C195.263 4.41492 195.785 4.93702 195.785 5.58255Z" fill="#9871F5" stroke="#9871F5"/>
<path d="M172.528 17.2312C172.528 17.8768 172.006 18.3989 171.363 18.3989C170.72 18.3989 170.197 17.8767 170.197 17.2312C170.197 16.5857 170.72 16.0636 171.363 16.0636C172.006 16.0636 172.528 16.5857 172.528 17.2312Z" fill="#9871F5" stroke="#9871F5"/>
<path d="M184.152 17.2314C184.152 17.8769 183.63 18.399 182.987 18.399C182.344 18.399 181.821 17.8769 181.821 17.2314C181.821 16.5858 182.344 16.0637 182.987 16.0637C183.63 16.0637 184.152 16.5858 184.152 17.2314Z" fill="#9871F5" stroke="#9871F5"/>
<path d="M195.785 17.2314C195.785 17.8769 195.263 18.399 194.62 18.399C193.977 18.399 193.454 17.8769 193.454 17.2314C193.454 16.5858 193.977 16.0637 194.62 16.0637C195.263 16.0637 195.785 16.5858 195.785 17.2314Z" fill="#9871F5" stroke="#9871F5"/>
<path d="M581.5 185.025C581.5 185.67 580.978 186.192 580.335 186.192C579.692 186.192 579.169 185.67 579.169 185.025C579.169 184.379 579.692 183.857 580.335 183.857C580.978 183.857 581.5 184.379 581.5 185.025Z" fill="#9871F5" stroke="#9871F5"/>
<path d="M581.5 196.673C581.5 197.319 580.978 197.841 580.335 197.841C579.692 197.841 579.169 197.319 579.169 196.673C579.169 196.028 579.692 195.506 580.335 195.506C580.978 195.506 581.5 196.028 581.5 196.673Z" fill="#9871F5" stroke="#9871F5"/>
<path d="M581.5 208.313C581.5 208.959 580.978 209.481 580.335 209.481C579.692 209.481 579.169 208.959 579.169 208.313C579.169 207.668 579.692 207.146 580.335 207.146C580.978 207.146 581.5 207.668 581.5 208.313Z" fill="#9871F5" stroke="#9871F5"/>
<path d="M581.5 219.962C581.5 220.608 580.978 221.13 580.335 221.13C579.692 221.13 579.169 220.608 579.169 219.962C579.169 219.317 579.692 218.795 580.335 218.795C580.978 218.795 581.5 219.317 581.5 219.962Z" fill="#9871F5" stroke="#9871F5"/>
<path d="M581.5 231.602C581.5 232.248 580.978 232.77 580.335 232.77C579.692 232.77 579.169 232.248 579.169 231.602C579.169 230.957 579.692 230.435 580.335 230.435C580.978 230.435 581.5 230.957 581.5 231.602Z" fill="#9871F5" stroke="#9871F5"/>
<path d="M581.5 243.251C581.5 243.897 580.978 244.419 580.335 244.419C579.692 244.419 579.169 243.897 579.169 243.251C579.169 242.606 579.692 242.083 580.335 242.083C580.978 242.083 581.5 242.606 581.5 243.251Z" fill="#9871F5" stroke="#9871F5"/>
<path d="M581.5 254.891C581.5 255.537 580.978 256.059 580.335 256.059C579.692 256.059 579.169 255.537 579.169 254.891C579.169 254.246 579.692 253.723 580.335 253.723C580.978 253.723 581.5 254.246 581.5 254.891Z" fill="#9871F5" stroke="#9871F5"/>
<path d="M569.867 185.025C569.867 185.67 569.345 186.192 568.702 186.192C568.059 186.192 567.536 185.67 567.536 185.025C567.536 184.379 568.059 183.857 568.702 183.857C569.345 183.857 569.867 184.379 569.867 185.025Z" fill="#9871F5" stroke="#9871F5"/>
<path d="M569.867 196.673C569.867 197.319 569.345 197.841 568.702 197.841C568.059 197.841 567.536 197.319 567.536 196.673C567.536 196.028 568.059 195.506 568.702 195.506C569.345 195.506 569.867 196.028 569.867 196.673Z" fill="#9871F5" stroke="#9871F5"/>
<path d="M569.867 208.313C569.867 208.959 569.345 209.481 568.702 209.481C568.059 209.481 567.536 208.959 567.536 208.313C567.536 207.668 568.059 207.146 568.702 207.146C569.345 207.146 569.867 207.668 569.867 208.313Z" fill="#9871F5" stroke="#9871F5"/>
<path d="M569.867 219.962C569.867 220.608 569.345 221.13 568.702 221.13C568.059 221.13 567.536 220.608 567.536 219.962C567.536 219.317 568.059 218.795 568.702 218.795C569.345 218.795 569.867 219.317 569.867 219.962Z" fill="#9871F5" stroke="#9871F5"/>
<path d="M569.867 231.602C569.867 232.248 569.345 232.77 568.702 232.77C568.059 232.77 567.536 232.248 567.536 231.602C567.536 230.957 568.059 230.435 568.702 230.435C569.345 230.435 569.867 230.957 569.867 231.602Z" fill="#9871F5" stroke="#9871F5"/>
<path d="M569.867 243.251C569.867 243.897 569.345 244.419 568.702 244.419C568.059 244.419 567.536 243.897 567.536 243.251C567.536 242.605 568.059 242.083 568.702 242.083C569.345 242.083 569.867 242.605 569.867 243.251Z" fill="#9871F5" stroke="#9871F5"/>
<path d="M569.867 254.891C569.867 255.537 569.345 256.059 568.702 256.059C568.059 256.059 567.536 255.537 567.536 254.891C567.536 254.246 568.059 253.723 568.702 253.723C569.345 253.723 569.867 254.246 569.867 254.891Z" fill="#9871F5" stroke="#9871F5"/>
<path d="M558.243 185.025C558.243 185.67 557.721 186.192 557.078 186.192C556.435 186.192 555.912 185.67 555.912 185.025C555.912 184.379 556.435 183.857 557.078 183.857C557.721 183.857 558.243 184.379 558.243 185.025Z" fill="#9871F5" stroke="#9871F5"/>
<path d="M558.243 196.673C558.243 197.319 557.721 197.841 557.078 197.841C556.435 197.841 555.912 197.319 555.912 196.673C555.912 196.028 556.435 195.506 557.078 195.506C557.721 195.506 558.243 196.028 558.243 196.673Z" fill="#9871F5" stroke="#9871F5"/>
<path d="M558.243 208.313C558.243 208.959 557.721 209.481 557.078 209.481C556.435 209.481 555.912 208.959 555.912 208.313C555.912 207.668 556.435 207.146 557.078 207.146C557.721 207.146 558.243 207.668 558.243 208.313Z" fill="#9871F5" stroke="#9871F5"/>
<path d="M558.243 219.962C558.243 220.608 557.721 221.13 557.078 221.13C556.435 221.13 555.912 220.608 555.912 219.962C555.912 219.317 556.435 218.795 557.078 218.795C557.721 218.795 558.243 219.317 558.243 219.962Z" fill="#9871F5" stroke="#9871F5"/>
<path d="M558.243 231.602C558.243 232.248 557.721 232.77 557.078 232.77C556.435 232.77 555.912 232.248 555.912 231.602C555.912 230.957 556.435 230.435 557.078 230.435C557.721 230.435 558.243 230.957 558.243 231.602Z" fill="#9871F5" stroke="#9871F5"/>
<path d="M558.243 243.251C558.243 243.897 557.721 244.419 557.078 244.419C556.435 244.419 555.912 243.897 555.912 243.251C555.912 242.605 556.435 242.083 557.078 242.083C557.721 242.083 558.243 242.605 558.243 243.251Z" fill="#9871F5" stroke="#9871F5"/>
<path d="M558.243 254.891C558.243 255.537 557.721 256.059 557.078 256.059C556.435 256.059 555.912 255.537 555.912 254.891C555.912 254.246 556.435 253.723 557.078 253.723C557.721 253.723 558.243 254.246 558.243 254.891Z" fill="#9871F5" stroke="#9871F5"/>
<path d="M546.61 185.025C546.61 185.67 546.088 186.192 545.445 186.192C544.802 186.192 544.279 185.67 544.279 185.025C544.279 184.379 544.802 183.857 545.445 183.857C546.088 183.857 546.61 184.379 546.61 185.025Z" fill="#9871F5" stroke="#9871F5"/>
<path d="M546.61 196.673C546.61 197.319 546.088 197.841 545.445 197.841C544.802 197.841 544.279 197.319 544.279 196.673C544.279 196.028 544.802 195.506 545.445 195.506C546.088 195.506 546.61 196.028 546.61 196.673Z" fill="#9871F5" stroke="#9871F5"/>
<path d="M546.61 208.314C546.61 208.959 546.088 209.481 545.445 209.481C544.802 209.481 544.279 208.959 544.279 208.314C544.279 207.668 544.802 207.146 545.445 207.146C546.088 207.146 546.61 207.668 546.61 208.314Z" fill="#9871F5" stroke="#9871F5"/>
<path d="M546.61 219.962C546.61 220.608 546.088 221.13 545.445 221.13C544.802 221.13 544.279 220.608 544.279 219.962C544.279 219.317 544.802 218.795 545.445 218.795C546.088 218.795 546.61 219.317 546.61 219.962Z" fill="#9871F5" stroke="#9871F5"/>
<path d="M546.61 231.602C546.61 232.248 546.088 232.77 545.445 232.77C544.802 232.77 544.279 232.248 544.279 231.602C544.279 230.957 544.802 230.435 545.445 230.435C546.088 230.435 546.61 230.957 546.61 231.602Z" fill="#9871F5" stroke="#9871F5"/>
<path d="M546.61 243.251C546.61 243.897 546.088 244.419 545.445 244.419C544.802 244.419 544.279 243.897 544.279 243.251C544.279 242.605 544.802 242.083 545.445 242.083C546.088 242.083 546.61 242.605 546.61 243.251Z" fill="#9871F5" stroke="#9871F5"/>
<path d="M546.61 254.891C546.61 255.537 546.088 256.059 545.445 256.059C544.802 256.059 544.279 255.537 544.279 254.891C544.279 254.246 544.802 253.723 545.445 253.723C546.088 253.723 546.61 254.246 546.61 254.891Z" fill="#9871F5" stroke="#9871F5"/>
<path d="M446.022 254.425H144.078C138.635 254.425 134.212 249.967 134.212 244.462V58.3553C134.212 52.8501 138.635 48.3923 144.078 48.3923H446.031C451.474 48.3923 455.897 52.8501 455.897 58.3553V244.461C455.888 249.967 451.465 254.425 446.022 254.425Z" fill="#04D361" stroke="#04D361"/>
<path d="M445.585 246.108H144.512C139.843 246.108 136.051 242.311 136.051 237.636V58.3964C136.051 53.7209 139.843 49.9237 144.512 49.9237H445.585C450.254 49.9237 454.046 53.7209 454.046 58.3964V237.636C454.046 242.32 450.254 246.108 445.585 246.108Z" fill="white"/>
<path d="M346.569 66.692V193.152C346.569 196.967 343.485 200.055 339.676 200.055H149.527C147.817 200.055 146.249 199.434 145.044 198.396C143.573 197.127 142.634 195.255 142.634 193.152V66.692C142.634 62.8771 145.726 59.7897 149.527 59.7897H339.676C341.386 59.7897 342.963 60.4107 344.159 61.4487C345.638 62.7174 346.569 64.5894 346.569 66.692Z" fill="#E6E6F0"/>
<path d="M440.63 113.846H361.919C358.109 113.846 355.026 110.759 355.026 106.944V66.692C355.026 62.8771 358.109 59.7897 361.919 59.7897H440.63C444.439 59.7897 447.522 62.8771 447.522 66.692V106.944C447.522 110.759 444.43 113.846 440.63 113.846Z" fill="#E6E6F0"/>
<path d="M440.63 177.481H361.919C358.109 177.481 355.026 174.393 355.026 170.578V130.326C355.026 126.512 358.109 123.424 361.919 123.424H440.63C444.439 123.424 447.522 126.512 447.522 130.326V170.578C447.522 174.393 444.43 177.481 440.63 177.481Z" fill="#E6E6F0"/>
<path d="M440.63 237.775H361.919C358.109 237.775 355.026 234.687 355.026 230.872V194.453C355.026 190.638 358.109 187.551 361.919 187.551H440.63C444.439 187.551 447.522 190.638 447.522 194.453V230.872C447.522 234.687 444.43 237.775 440.63 237.775Z" fill="#E6E6F0"/>
<path d="M246.621 213.629H145.141C143.759 213.629 142.643 212.511 142.643 211.127C142.643 209.743 143.759 208.625 145.141 208.625H246.621C248.003 208.625 249.12 209.743 249.12 211.127C249.12 212.502 248.003 213.629 246.621 213.629Z" fill="#E6E6F0"/>
<path d="M252.479 237.104H145.242C143.782 237.104 142.602 236.019 142.602 234.676V224.957C142.602 223.614 143.782 222.529 145.242 222.529H252.479C253.939 222.529 255.119 223.614 255.119 224.957V234.676C255.119 236.019 253.939 237.104 252.479 237.104Z" fill="#E6E6F0"/>
<path d="M321.752 213.629H344.07C345.452 213.629 346.568 212.511 346.568 211.127C346.568 209.743 345.452 208.625 344.07 208.625H321.752C320.37 208.625 319.254 209.743 319.254 211.127C319.254 212.502 320.37 213.629 321.752 213.629Z" fill="#E6E6F0"/>
<path d="M283.894 213.629H306.212C307.594 213.629 308.711 212.511 308.711 211.127C308.711 209.743 307.594 208.625 306.212 208.625H283.894C282.512 208.625 281.396 209.743 281.396 211.127C281.387 212.502 282.512 213.629 283.894 213.629Z" fill="#E6E6F0"/>
<path d="M299.807 237.21H344.07C345.452 237.21 346.568 236.092 346.568 234.708V224.692C346.568 223.308 345.452 222.19 344.07 222.19H299.807C298.424 222.19 297.308 223.308 297.308 224.692V234.708C297.308 236.092 298.424 237.21 299.807 237.21Z" fill="#E6E6F0"/>
<g opacity="0.24">
<path d="M400.99 101.213C408.696 101.213 414.944 94.9566 414.944 87.2394C414.944 79.5222 408.696 73.2661 400.99 73.2661C393.283 73.2661 387.035 79.5222 387.035 87.2394C387.035 94.9566 393.283 101.213 400.99 101.213Z" fill="#E6E6F0" stroke="#6842C2" stroke-width="2" stroke-miterlimit="10"/>
<path d="M406.707 85.8615L398.742 81.2569C397.865 80.7512 396.776 81.3811 396.776 82.3925V91.6016C396.776 92.613 397.865 93.2429 398.742 92.7372L406.707 88.1327C407.584 87.627 407.584 86.3672 406.707 85.8615Z" fill="#E6E6F0" stroke="#6842C2" stroke-width="2" stroke-miterlimit="10"/>
</g>
<g opacity="0.24">
<path d="M400.99 164.002C408.696 164.002 414.944 157.746 414.944 150.028C414.944 142.311 408.696 136.055 400.99 136.055C393.283 136.055 387.035 142.311 387.035 150.028C387.035 157.746 393.283 164.002 400.99 164.002Z" fill="#E6E6F0" stroke="#6842C2" stroke-width="2" stroke-miterlimit="10"/>
<path d="M406.707 148.651L398.742 144.046C397.865 143.54 396.776 144.17 396.776 145.182V154.391C396.776 155.402 397.865 156.032 398.742 155.526L406.707 150.922C407.584 150.416 407.584 149.156 406.707 148.651Z" fill="#E6E6F0" stroke="#6842C2" stroke-width="2" stroke-miterlimit="10"/>
</g>
<g opacity="0.24">
<path d="M400.99 226.185C408.696 226.185 414.944 219.929 414.944 212.212C414.944 204.495 408.696 198.239 400.99 198.239C393.283 198.239 387.035 204.495 387.035 212.212C387.035 219.929 393.283 226.185 400.99 226.185Z" fill="#E6E6F0" stroke="#6842C2" stroke-width="2" stroke-miterlimit="10"/>
<path d="M406.707 210.834L398.742 206.23C397.865 205.724 396.776 206.354 396.776 207.365V216.574C396.776 217.586 397.865 218.216 398.742 217.71L406.707 213.105C407.584 212.6 407.584 211.34 406.707 210.834Z" fill="#E6E6F0" stroke="#6842C2" stroke-width="2" stroke-miterlimit="10"/>
</g>
<path d="M344.159 61.4487L145.044 198.396C143.573 197.127 142.634 195.255 142.634 193.152V66.692C142.634 62.8771 145.726 59.7897 149.527 59.7897H339.676C341.386 59.7897 342.963 60.4107 344.159 61.4487Z" fill="#F2F2FA"/>
<mask id="mask0_81_688" style="mask-type:alpha" maskUnits="userSpaceOnUse" x="143" y="31" width="204" height="170">
<path d="M346.817 39.6888V192.008C346.817 196.603 343.739 200.322 339.936 200.322H150.127C148.42 200.322 146.854 199.574 145.652 198.323C144.183 196.795 143.246 194.54 143.246 192.008V39.6888C143.246 35.0938 146.333 31.375 150.127 31.375H339.936C341.643 31.375 343.218 32.123 344.411 33.3733C345.888 34.9014 346.817 37.1562 346.817 39.6888Z" fill="#A3D1DE"/>
</mask>
<g mask="url(#mask0_81_688)">
<path d="M330.78 138.938C330.78 138.938 342.147 129.951 342.449 127.378C343.016 122.534 344.752 118.737 355.154 115.525C355.154 115.525 355.96 117.069 354.516 118.746C352.939 120.565 351.689 121.203 351.689 121.203C351.689 121.203 354.445 122.259 358.547 119.048C362.649 115.845 364.377 113.059 366.104 113.742C366.104 113.742 368.142 111.897 369.108 112.19C369.108 112.19 369.817 112.402 369.684 113.165C371.287 112.917 370.959 117.548 368.107 121.31C364.004 126.722 358.884 131.38 354.693 132.914C351.548 134.068 338.55 147.313 338.55 147.313L330.78 138.938Z" fill="#FFCAD0"/>
<path d="M295.678 184.788C290.716 186.465 263.189 144.075 263.189 144.075C252.548 131.814 262.099 91.4292 271.73 105.589C271.73 105.589 296.776 150.96 299.479 154.615C302.836 159.157 314.009 178.587 295.678 184.788Z" fill="#04D361"/>
<path d="M264.66 226.868H192.08C192.08 226.868 186.507 224.41 191.354 213.693C193.17 209.692 192.381 199.383 192.08 185.232C191.469 157.25 183.176 110.805 193.409 105.482C199.54 102.279 212.564 98.0653 222.017 95.1819C222.584 95.0222 223.134 94.8536 223.674 94.6939C229.194 93.0438 233.136 91.9525 233.136 91.9525C233.136 91.9525 237.708 92.6179 246.993 95.3682C247.498 95.519 248.021 95.6787 248.561 95.8384C250.98 96.5748 253.673 97.4353 256.668 98.4556C272.899 103.983 271.074 102.013 273.227 122.312C274.946 138.521 264.66 226.868 264.66 226.868Z" fill="#04D361"/>
<path d="M248.561 95.8295C248.349 99.2718 246.807 102.315 244.459 104.542C242.076 106.822 238.842 108.206 235.316 108.206C228.042 108.206 222.159 102.377 222.009 95.1819C222.576 95.0222 223.125 94.8536 223.665 94.6939C229.185 93.0438 233.128 91.9525 233.128 91.9525C233.128 91.9525 237.699 92.6179 246.984 95.3682C247.489 95.5101 248.021 95.6698 248.561 95.8295Z" fill="#F2F2FA"/>
<path d="M246.967 66.7741L245.824 88.883L245.496 95.1909C245.363 97.8702 244.185 100.257 242.36 101.978C240.552 103.699 238.107 104.746 235.431 104.746C229.77 104.746 225.207 100.07 225.358 94.4102L225.641 83.1517L226.12 64.4497L246.967 66.7741Z" fill="#FBD5D9"/>
<path d="M246.967 71.1923L245.824 92.0147C236.043 92.4051 228.91 88.4305 225.641 83.125L226.12 68.8856L246.967 71.1923Z" fill="#FFA4AD"/>
<path d="M219.625 45.1266C219.625 45.1266 210.252 43.9556 211.324 55.7197C212.157 64.84 224.534 77.0123 224.534 77.0123C224.534 77.0123 232.348 49.5271 219.625 45.1266Z" fill="#8F4A3F"/>
<path d="M257.908 53.5993C257.271 55.0543 256.287 56.323 255.481 57.6892C254.684 59.0555 254.046 60.617 254.223 62.1962C254.063 59.6322 252.371 57.4763 250.909 55.3737C249.447 53.2622 248.118 50.707 248.818 48.2407C249.483 45.8719 253.762 42.1368 256.367 43.6716C259.264 45.375 259.043 51.0176 257.908 53.5993Z" fill="#0E1235"/>
<path d="M254.728 54.0695C254.728 54.0695 255.454 61.2735 254.444 69.2493C253.275 78.4673 253.691 89.291 240.127 90.0185C225.65 90.7904 220.857 74.5636 220.857 74.5636C220.857 74.5636 213.167 73.1264 212.644 67.9274C212.121 62.7196 217.49 62.4268 219.244 63.8907C219.244 63.8907 221.229 44.4878 239.135 44.4878C254.932 44.4701 254.728 54.0695 254.728 54.0695Z" fill="#FBD5D9"/>
<path d="M237.717 68.8765C237.717 69.6659 237.079 70.3135 236.281 70.3135C235.484 70.3135 234.846 69.6748 234.846 68.8765C234.846 68.087 235.484 67.4395 236.281 67.4395C237.079 67.4395 237.717 68.087 237.717 68.8765Z" fill="#9A5449"/>
<path d="M250.687 68.8765C250.687 69.6659 250.049 70.3135 249.252 70.3135C248.455 70.3135 247.817 69.6748 247.817 68.8765C247.817 68.087 248.455 67.4395 249.252 67.4395C250.049 67.4395 250.687 68.087 250.687 68.8765Z" fill="#9A5449"/>
<path d="M231.063 63.8818C231.063 63.8818 233.19 60.3774 237.717 61.6372" stroke="#561E15" stroke-width="1.0274" stroke-miterlimit="10" stroke-linecap="round" stroke-linejoin="round"/>
<path d="M245.523 61.584C245.523 61.584 248.792 58.5941 252.008 61.8679" stroke="#561E15" stroke-width="1.0274" stroke-miterlimit="10" stroke-linecap="round" stroke-linejoin="round"/>
<path d="M242.652 65.1416C242.652 65.1416 244.202 69.1074 245.522 71.5737C246.843 74.0401 242.944 75.1402 242.944 75.1402" stroke="#D66D78" stroke-width="0.7706" stroke-miterlimit="10" stroke-linecap="round" stroke-linejoin="round"/>
<path d="M237.46 79.5763C237.46 79.5763 240.659 82.6815 244.769 80.7829" stroke="#D66D78" stroke-width="0.7706" stroke-miterlimit="10" stroke-linecap="round" stroke-linejoin="round"/>
<path d="M218.987 69.5946C218.987 69.5946 218.943 65.1328 215.612 66.3481" stroke="#D66D78" stroke-width="0.7706" stroke-miterlimit="10" stroke-linecap="round" stroke-linejoin="round"/>
<path d="M223.382 48.8529C223.382 48.8529 231.524 57.157 227.068 60.3332C222.106 63.8731 221.335 68.8768 221.335 68.8768C221.335 68.8768 221.442 67.1113 219.236 63.882C217.029 60.6437 212.219 49.1634 223.382 48.8529Z" fill="#8F4A3F"/>
<path d="M295.678 184.788C301.596 188.648 346.577 140.535 346.577 140.535L338.595 130.075C338.595 130.075 304.396 151.563 299.479 154.615C292.391 159.007 275.77 171.818 295.678 184.788Z" fill="#04D361"/>
<path d="M271.756 156.815C271.756 156.815 273.768 134.822 273.422 127.839C273.422 127.839 276.284 146.302 276.355 163.363L271.756 156.815Z" fill="#03A14A"/>
<path d="M195.748 149.318C195.748 149.318 206.283 104.151 195.013 104.684C195.013 104.684 191.336 105.127 184.142 116.306C179.11 124.122 173.599 137.67 163.552 159.707C158.803 170.123 152.867 184.221 163.888 184.975C169.851 185.383 176.106 182.118 179.792 175.26C186.543 162.697 195.748 149.318 195.748 149.318Z" fill="#04D361"/>
<path d="M205.175 205.54L262.507 192.01C262.498 192.01 244.468 205.54 205.175 205.54Z" fill="#03A14A"/>
<path d="M189.777 158.394C189.777 158.394 199.026 141.99 203.944 133.988L192.399 196.739C192.399 196.739 191.274 171.108 189.777 158.394Z" fill="#03A14A"/>
<path d="M226.642 179.767L192.355 195.798L194.118 179.314L226.642 179.767Z" fill="#03A14A"/>
<path d="M232.273 177.027L232.273 177.027L237.934 146.072L237.934 146.071C238.228 144.448 239.641 143.271 241.296 143.271H253.328C255.461 143.271 257.077 145.206 256.69 147.312L256.69 147.312L251.029 178.265C250.727 179.892 249.312 181.068 247.667 181.068H235.635C233.502 181.068 231.886 179.133 232.273 177.027Z" fill="#04D361" stroke="#04D361"/>
<path d="M249.155 182.881H237.123C234.678 182.881 232.826 180.663 233.269 178.25L238.931 147.295C239.267 145.432 240.889 144.084 242.785 144.084H254.816C257.262 144.084 259.113 146.302 258.67 148.715L253.009 179.669C252.672 181.532 251.051 182.881 249.155 182.881Z" fill="white"/>
<path d="M240.228 155.055L240.229 155.051L241.611 147.492L241.611 147.492L241.612 147.488C241.631 147.377 241.73 147.29 241.855 147.29H244.008C244.166 147.29 244.281 147.432 244.252 147.583L244.251 147.587L242.869 155.146L242.869 155.146L242.868 155.15C242.849 155.261 242.75 155.348 242.625 155.348H240.473C240.315 155.348 240.199 155.206 240.228 155.055Z" fill="#04D361" stroke="#04D361"/>
<path d="M215.337 166.14C215.337 166.14 221.202 165.944 225.694 164.569C227.626 163.975 231.453 163.283 232.72 161.446C233.996 159.592 233.881 155.591 235.157 155.422C236.14 155.289 238.107 158.421 237.602 160.533C237.106 162.6 236.867 163.744 236.113 164.667C235.865 164.977 244.132 165.563 249.368 164.41C252.956 163.62 251.893 167.178 249.456 168.295C249.456 168.295 250.325 170.469 247.782 171.205C247.782 171.205 247.808 174.107 245.381 174.24C245.106 174.914 244.637 176.351 242.537 176.866C239.48 177.62 234.864 177.904 230.213 177.487C227.847 177.274 216.932 179.19 216.932 179.19L215.337 166.14Z" fill="#FFCAD0"/>
<path d="M163.534 185.143C171.907 186.607 221.814 180.965 221.814 180.965L220.573 163.478C220.573 163.478 179.907 165.377 174.485 164.889C156.553 163.301 153.115 183.325 163.534 185.143Z" fill="#04D361"/>
<path d="M225.358 35.6685C226.217 34.8079 227.174 33.8941 228.379 33.761C229.584 33.628 230.957 34.7547 230.558 35.908C234.66 34.1248 238.949 32.794 243.334 31.9423C244.433 31.7294 245.62 31.5519 246.639 32.0399C247.649 32.5278 248.278 33.9385 247.587 34.8168C249.713 35.6153 252.07 35.0918 254.329 34.8257C256.588 34.5595 259.167 34.6748 260.699 36.3516C262.126 37.9042 262.152 40.2464 262.108 42.3579C262.037 45.2502 261.966 48.1602 261.311 50.9814C260.336 55.1512 258.068 59.0017 254.887 61.8673C255.835 58.6202 254.143 55.0182 251.476 52.9333C248.818 50.8395 245.39 50.0144 242.032 49.6329C238.009 49.1716 233.916 49.278 229.912 49.9345C226.89 50.4314 222.576 52.5873 219.572 51.221C212.918 48.2045 222.788 38.2414 225.358 35.6685Z" fill="#8F4A3F"/>
</g>
<path d="M328.211 73.0531H286.552C283.363 73.0531 280.776 70.4625 280.776 67.2686V49.7731C280.776 46.5793 283.363 43.9886 286.552 43.9886H328.211C331.4 43.9886 333.988 46.5793 333.988 49.7731V67.2686C333.988 70.4625 331.4 73.0531 328.211 73.0531Z" fill="#04D361"/>
<path d="M289.689 71.1723V79.1393L298.212 70.6045L289.689 71.1723Z" fill="#04D361"/>
<path d="M293.011 61.8478C294.846 61.8478 296.333 60.3583 296.333 58.5208C296.333 56.6834 294.846 55.1938 293.011 55.1938C291.176 55.1938 289.689 56.6834 289.689 58.5208C289.689 60.3583 291.176 61.8478 293.011 61.8478Z" fill="#E6E6F0"/>
<path d="M307.382 61.8478C309.216 61.8478 310.704 60.3583 310.704 58.5208C310.704 56.6834 309.216 55.1938 307.382 55.1938C305.547 55.1938 304.059 56.6834 304.059 58.5208C304.059 60.3583 305.547 61.8478 307.382 61.8478Z" fill="#E6E6F0"/>
<path d="M321.752 61.8478C323.587 61.8478 325.075 60.3583 325.075 58.5208C325.075 56.6834 323.587 55.1938 321.752 55.1938C319.917 55.1938 318.43 56.6834 318.43 58.5208C318.43 60.3583 319.917 61.8478 321.752 61.8478Z" fill="#E6E6F0"/>
<path d="M442.803 309.86L440.916 332.848H450.706L455.792 309.86H442.803Z" fill="#FEC9CF"/>
<path d="M451.769 328.039C451.769 328.039 456.022 334.914 452.833 336.139C449.643 337.363 428.645 337.47 423.462 336.698C418.279 335.917 435.025 328.811 438.852 327.693C442.688 326.575 443.92 332.404 451.769 328.039Z" fill="#6842C2"/>
<path d="M494.279 309.86L496.157 332.848H486.367L481.29 309.86H494.279Z" fill="#FEC9CF"/>
<path d="M485.304 328.039C485.304 328.039 481.051 334.914 484.241 336.139C487.43 337.363 508.428 337.47 513.611 336.698C518.794 335.917 502.049 328.811 498.221 327.693C494.394 326.575 493.154 332.404 485.304 328.039Z" fill="#6842C2"/>
<path d="M440.836 184.172L436.398 321.997H457.068L461.524 230.199L479.235 324.632L501.748 320.879C501.748 320.879 481.423 217.867 477.968 184.181H440.836V184.172Z" fill="#D8D8E3"/>
<path d="M460.577 236.285L459.901 221.976L461.021 230.206L460.577 236.285Z" fill="#194248" stroke="#C9C9D4"/>
<path d="M471.323 184.172L495.244 321.651" stroke="#C9C9D4" stroke-miterlimit="10" stroke-linecap="round" stroke-linejoin="round"/>
<path d="M466.344 82.5793C470.756 82.5882 475.443 84.9038 476.931 89.0647C478.083 92.2675 477.215 96.0469 478.827 99.0456C480.014 101.264 482.389 102.692 483.461 104.963C485.676 109.683 481.361 115.29 482.734 120.312C484.001 124.96 489.751 127.622 490.23 132.422C490.54 135.483 488.387 138.419 485.614 139.75C482.85 141.09 479.607 141.081 476.577 140.575C469.143 139.324 462.144 135.243 454.613 135.633C451.513 135.793 448.27 136.698 445.399 135.5C443.353 134.649 441.873 132.848 440.571 131.056C439.073 128.997 437.638 126.655 437.78 124.118C437.984 120.391 441.359 117.783 443.379 114.651C445.444 111.449 446.312 107.447 445.736 103.677C442.998 85.7555 453.063 86.3055 454.348 86.2789C455.526 86.2523 459.442 83.848 460.992 83.3956C462.747 82.8899 464.536 82.5793 466.344 82.5793Z" fill="#D38D00"/>
<path d="M419.059 157.769C414.798 154.371 397.468 142.89 397.299 141.284C396.98 138.268 395.926 135.881 389.467 133.823C389.467 133.823 388.954 134.781 389.848 135.837C390.814 136.982 391.594 137.381 391.594 137.381C391.594 137.381 389.875 138.02 387.341 135.997C384.807 133.974 383.753 132.226 382.672 132.643C382.672 132.643 381.414 131.481 380.811 131.658C380.811 131.658 380.368 131.783 380.448 132.262C379.447 132.093 379.624 134.977 381.37 137.345C383.886 140.743 388.324 143.334 390.929 144.319C392.878 145.055 405.663 163.988 414.23 166.037C416.694 166.605 421.044 159.348 419.059 157.769Z" fill="#FCDDC6"/>
<path d="M432.464 140.974C432.464 140.974 413.309 154.353 411.457 157.68C409.606 161.007 410.988 169.888 419.52 164.183C428.052 158.479 441.519 148.125 441.519 148.125L432.464 140.974Z" fill="#FCDDC6"/>
<path d="M442.307 128.793C442.307 128.793 437.045 130.124 433.536 134.303C430.595 137.807 425.855 143.45 425.855 143.45L440.385 154.752C440.394 154.744 443.937 134.196 442.307 128.793Z" fill="#47248F"/>
<path d="M477.968 184.172H440.827C440.827 184.172 440.978 177.793 438.914 167.883C436.841 157.982 437.877 152.801 439.942 147.628C442.015 142.456 438.32 130.497 442.307 128.793C443.928 128.101 446.746 126.983 449.51 125.91C450.21 125.644 450.901 125.369 451.566 125.111C454.773 123.869 457.475 122.84 457.475 122.84H464.164C464.164 122.84 468.771 124.366 473.502 126.256C474.123 126.504 474.752 126.762 475.372 127.019C475.372 127.028 475.372 127.028 475.372 127.028C477.755 128.03 480.032 129.086 481.583 130.053C486.606 133.158 477.968 184.172 477.968 184.172Z" fill="#6842C2"/>
<path d="M455.225 106.383L455.933 120.152L456.137 124.082C456.226 125.75 456.952 127.241 458.086 128.314C459.212 129.388 460.735 130.035 462.401 130.035C465.927 130.035 468.762 127.125 468.674 123.603L468.497 116.594L468.195 104.945L455.225 106.383Z" fill="#FFDFC8"/>
<path d="M455.225 106.383L455.933 119.353C462.02 119.602 466.468 117.118 468.505 113.817L468.204 104.945L455.225 106.383Z" fill="#DA9F74"/>
<path d="M450.387 95.7187C450.387 95.7187 449.935 100.208 450.564 105.167C451.291 110.907 451.929 117.482 459.486 118.103C468.488 118.839 471.491 108.477 471.491 108.477C471.491 108.477 475.673 107.501 476.187 104.644C476.701 101.778 473.582 100.918 472.492 101.823C472.492 101.823 471.252 89.739 460.106 89.739C450.254 89.739 450.387 95.7187 450.387 95.7187Z" fill="#FFDFC8"/>
<path d="M475.372 127.019C475.372 127.028 475.372 127.028 475.372 127.019C467.753 136.317 458.769 135.882 458.769 135.882C451.681 134.329 449.51 125.91 449.51 125.91C450.21 125.644 450.901 125.369 451.566 125.111C454.773 123.869 457.475 122.84 457.475 122.84H464.164C464.164 122.84 468.771 124.366 473.503 126.256C474.123 126.504 474.752 126.762 475.372 127.019Z" fill="#04D361"/>
<path d="M473.502 126.256C465.732 134.711 458.999 133.824 458.999 133.824C451.76 131.047 451.565 125.111 451.565 125.111C454.773 123.869 457.475 122.84 457.475 122.84H464.164C464.164 122.84 468.771 124.366 473.502 126.256Z" fill="#FCDDC6"/>
<path d="M454.268 87.1306C454.268 87.1306 455.304 95.8695 449.696 98.7528C449.696 98.7528 446.887 88.1686 454.268 87.1306Z" fill="#D38D00"/>
<path d="M452.567 87.9647C452.567 87.9647 454.56 95.5768 459.504 96.0204C464.448 96.464 463.57 100.474 467.947 100.935C470.552 101.21 471.713 103.925 471.713 103.925C471.713 103.925 472.094 101.228 474.45 100.27C476.825 99.3119 468.878 79.1637 452.567 87.9647Z" fill="#D38D00"/>
<path d="M460.957 106.285C460.957 106.764 461.338 107.146 461.816 107.146C462.295 107.146 462.675 106.764 462.675 106.285C462.675 105.806 462.295 105.425 461.816 105.425C461.347 105.425 460.957 105.815 460.957 106.285Z" fill="#60423D"/>
<path d="M453.179 106.284C453.179 106.763 453.56 107.145 454.038 107.145C454.516 107.145 454.897 106.763 454.897 106.284C454.897 105.805 454.508 105.424 454.038 105.424C453.56 105.424 453.179 105.814 453.179 106.284Z" fill="#60423D"/>
<path d="M464.952 103.286C464.952 103.286 463.676 101.184 460.957 101.938" stroke="#561E15" stroke-miterlimit="10" stroke-linecap="round" stroke-linejoin="round"/>
<path d="M456.278 101.911C456.278 101.911 454.312 100.119 452.39 102.08" stroke="#561E15" stroke-miterlimit="10" stroke-linecap="round" stroke-linejoin="round"/>
<path d="M457.997 104.049C457.997 104.049 457.067 106.427 456.278 107.908C455.49 109.39 457.829 110.046 457.829 110.046" stroke="#DA9F74" stroke-width="0.75" stroke-miterlimit="10" stroke-linecap="round" stroke-linejoin="round"/>
<path d="M463.153 111.733C463.153 111.733 461.639 113.941 458.999 113.311" stroke="#DA9F74" stroke-width="0.75" stroke-miterlimit="10" stroke-linecap="round" stroke-linejoin="round"/>
<path d="M472.466 105.682C472.466 105.682 472.492 103.003 474.485 103.739" stroke="#DA9F74" stroke-width="0.75" stroke-miterlimit="10" stroke-linecap="round" stroke-linejoin="round"/>
<path d="M441.59 175.318H407.568C406.895 175.318 406.345 174.767 406.345 174.093C406.345 173.419 406.895 172.869 407.568 172.869H441.59C442.263 172.869 442.812 173.419 442.812 174.093C442.803 174.776 442.263 175.318 441.59 175.318Z" fill="#04D361"/>
<path d="M403.756 146.372L403.756 146.372L403.755 146.371C403.551 145.56 404.172 144.766 405.007 144.766H435.653C436.249 144.766 436.764 145.17 436.904 145.742L436.904 145.743L443.502 172.378H410.2L403.756 146.372Z" fill="#04D361" stroke="#04D361"/>
<path d="M441.785 172.878H407.453L400.914 146.493C400.631 145.366 401.49 144.266 402.651 144.266H433.297C434.121 144.266 434.839 144.825 435.033 145.623L441.785 172.878Z" fill="white"/>
<path d="M467.921 175.317H442.174C441.545 175.317 441.031 174.803 441.031 174.173V174.022C441.031 173.392 441.545 172.878 442.174 172.878H467.921C468.55 172.878 469.064 173.392 469.064 174.022V174.173C469.072 174.812 468.559 175.317 467.921 175.317Z" fill="#04D361"/>
<path d="M422.136 157.078L422.136 157.079C422.71 158.567 422.172 159.926 421.261 160.284C420.355 160.632 419.046 159.985 418.471 158.494C417.897 157.003 418.439 155.639 419.345 155.29C420.252 154.941 421.562 155.58 422.136 157.078Z" fill="#04D361" stroke="#04D361"/>
<path d="M479.846 172.878L477.614 143.902L481.902 156.101L479.846 172.878Z" fill="#47248F"/>
<path d="M480.138 146.848C480.138 146.848 485.436 175.362 486.748 180.029C487.598 183.045 493.782 185.103 495.723 181.111C496.148 180.233 496.05 178.769 496.006 177.278C495.705 168.06 489.264 144.603 489.264 144.603L480.138 146.848Z" fill="#FCDDC6"/>
<path d="M481.591 130.053C481.591 130.053 484.754 131.677 487.412 136.263C490.07 140.85 493.738 148.941 493.508 150.902C492.126 154.673 481.21 158.576 481.21 158.576C481.21 158.576 473.919 134.578 481.591 130.053Z" fill="#6842C2"/>
<path d="M487.714 174.519C487.714 174.519 470.889 174.146 467.699 172.248C463.376 169.666 462.375 170.784 459.867 170.163C455.845 169.16 456.288 169.977 456.288 169.977C456.288 169.977 456.474 172.31 459.584 172.603C461.152 172.754 463.5 173.419 463.004 173.8C463.004 173.8 450.529 175.105 448.022 175.326C445.514 175.548 446.737 177.482 448.651 177.926C448.651 177.926 449.794 179.372 451.645 178.928C451.645 178.928 451.238 179.745 456.04 179.745C460.842 179.745 465.661 177.189 468.098 178.298C470.534 179.407 483.691 184.509 492.037 183.329C496.024 182.761 496.051 180.845 496.051 178.822C496.051 175.317 493.464 174.874 487.714 174.519Z" fill="#FCDDC6"/>
<path d="M138.655 309.86L133.1 332.847H123.31L125.667 309.86H138.655Z" fill="#BC8567"/>
<path d="M122.247 328.039C122.247 328.039 117.995 334.914 121.184 336.139C124.374 337.363 145.371 337.469 150.554 336.698C155.737 335.917 138.992 328.81 135.165 327.693C131.338 326.575 130.097 332.404 122.247 328.039Z" fill="#6842C2"/>
<path d="M107.823 309.86L104.465 332.847H94.6751L94.8346 309.86H107.823Z" fill="#BC8567"/>
<path d="M93.6126 328.039C93.6126 328.039 89.3599 334.914 92.5494 336.139C95.7389 337.363 116.737 337.469 121.92 336.698C127.103 335.917 110.358 328.81 106.53 327.693C102.703 326.575 101.462 332.404 93.6126 328.039Z" fill="#6842C2"/>
<path d="M91.3711 198.686L92.0976 321.349H107.638L118.615 231.228L131.125 267.798L121.76 321.358H138.665C138.665 321.358 153.522 275.073 152.92 265.989C152.318 256.895 135.165 194.951 135.165 194.951L91.3711 198.686Z" fill="#D8D8E3"/>
<path d="M121.376 237.788L119.114 231.169L120.169 220.457L121.376 237.788Z" fill="#C9C9D4" stroke="#C9C9D4"/>
<path d="M100.143 197.204L99.2474 321.358" stroke="#C9C9D4" stroke-miterlimit="10"/>
<path d="M147.728 142.509C147.728 142.509 157.766 161.522 157.988 167.359C158.209 173.197 151.786 171.893 148.463 166.632C145.141 161.362 139.825 146.422 139.825 146.422L147.728 142.509Z" fill="#BC8567"/>
<path d="M149.606 144.097C149.606 144.097 146.727 149.225 139.825 152.357C138.399 153.005 137.194 151.292 136.299 149.261C135.262 146.892 134.66 144.097 134.66 144.097C134.66 144.097 126.748 119.584 133.721 120.463C133.721 120.463 139.657 120.879 144.016 129.485C145.159 131.73 146.94 136.255 148.428 140.549C148.853 141.773 149.252 142.971 149.606 144.097Z" fill="#47248F"/>
<path d="M149.606 144.097C149.606 144.097 146.727 149.225 139.825 152.357C138.399 153.005 137.194 151.292 136.299 149.261C139.001 148.045 144.113 145.313 148.428 140.548C148.853 141.773 149.252 142.97 149.606 144.097Z" fill="#04D361"/>
<path d="M135.519 196.291C131.134 201.277 102.26 200.54 91.3621 198.686C89.4484 198.358 87.5613 197.622 90.5825 190.95C91.7165 188.457 91.2292 182.042 91.0343 173.224C90.6533 155.79 85.4881 126.868 91.8583 123.55C95.6768 121.554 103.784 118.928 109.675 117.135C110.03 117.038 110.375 116.931 110.712 116.825C114.149 115.796 116.604 115.113 116.604 115.113C116.604 115.113 119.448 115.53 125.233 117.242C125.543 117.331 125.88 117.437 126.217 117.535C127.723 117.996 129.397 118.528 131.267 119.167C134.89 120.4 137.548 121.154 138.195 122.361C139.923 125.528 139.258 131.144 139.364 139.235C139.506 149.394 139.4 191.89 135.519 196.291Z" fill="#6842C2"/>
<path d="M89.6788 153.484L95.9073 138.277L91.3711 177.394L89.6788 153.484Z" fill="#47248F"/>
<path d="M126.216 117.544C126.084 119.691 125.118 121.58 123.665 122.964C122.176 124.384 120.165 125.245 117.977 125.245C113.45 125.245 109.782 121.616 109.693 117.127C110.047 117.029 110.393 116.923 110.73 116.816C114.167 115.787 116.621 115.104 116.621 115.104C116.621 115.104 119.465 115.521 125.251 117.233C125.552 117.348 125.88 117.446 126.216 117.544Z" fill="#04D361"/>
<path d="M129.992 84.0734C129.992 84.0734 126.712 80.9339 121.747 80.1869C114.486 79.0944 104.926 81.4601 103.022 92.5602C101.515 98.9569 109.303 109.47 112.245 108.858C112.245 108.858 138.722 92.0744 129.992 84.0734Z" fill="#43302D"/>
<path d="M125.224 99.4536L124.516 113.223L124.312 117.153C124.232 118.821 123.497 120.311 122.363 121.385C121.237 122.458 119.714 123.106 118.048 123.106C114.522 123.106 111.687 120.196 111.775 116.674L111.952 109.665L112.254 98.0164L125.224 99.4536Z" fill="#BC8567"/>
<path d="M125.224 102.195L124.515 115.166C118.429 115.414 113.981 112.93 111.943 109.63L112.245 100.758L125.224 102.195Z" fill="#765441"/>
<path d="M130.053 91.5311C130.053 91.5311 130.505 96.0203 129.876 100.98C129.149 106.72 129.406 113.462 120.954 113.915C111.935 114.394 108.949 104.289 108.949 104.289C108.949 104.289 104.156 103.393 103.828 100.155C103.5 96.9163 106.849 96.73 107.939 97.635C107.939 97.635 109.179 85.5514 120.325 85.5514C130.186 85.5603 130.053 91.5311 130.053 91.5311Z" fill="#BC8567"/>
<path d="M119.74 100.208C119.74 100.705 119.341 101.104 118.845 101.104C118.349 101.104 117.95 100.705 117.95 100.208C117.95 99.7111 118.349 99.3119 118.845 99.3119C119.332 99.3119 119.74 99.7111 119.74 100.208Z" fill="#60423D"/>
<path d="M128.36 99.7465C128.36 100.243 127.962 100.642 127.466 100.642C126.97 100.642 126.571 100.243 126.571 99.7465C126.571 99.2497 126.97 98.8506 127.466 98.8506C127.962 98.8506 128.36 99.2497 128.36 99.7465Z" fill="#60423D"/>
<path d="M115.319 97.6437C115.319 97.6437 116.639 95.4615 119.465 96.251" stroke="#43302D" stroke-miterlimit="10" stroke-linecap="round" stroke-linejoin="round"/>
<path d="M124.321 96.2155C124.321 96.2155 126.358 94.3527 128.36 96.3929" stroke="#43302D" stroke-miterlimit="10" stroke-linecap="round" stroke-linejoin="round"/>
<path d="M122.54 98.4336C122.54 98.4336 123.505 100.9 124.329 102.444C125.153 103.979 122.717 104.662 122.717 104.662" stroke="#765441" stroke-width="0.75" stroke-miterlimit="10" stroke-linecap="round" stroke-linejoin="round"/>
<path d="M119.297 107.421C119.297 107.421 121.29 109.355 123.85 108.175" stroke="#765441" stroke-width="0.75" stroke-miterlimit="10" stroke-linecap="round" stroke-linejoin="round"/>
<path d="M107.797 101.201C107.797 101.201 107.77 98.4242 105.697 99.1782" stroke="#765441" stroke-width="0.75" stroke-miterlimit="10" stroke-linecap="round" stroke-linejoin="round"/>
<path d="M110.535 88.2839C110.535 88.2839 115.603 93.4563 112.829 95.4347C109.746 97.6349 109.259 100.758 109.259 100.758C109.259 100.758 109.321 99.6577 107.948 97.6438C106.574 95.6299 103.58 88.4791 110.535 88.2839Z" fill="#43302D"/>
<path d="M82.786 143.529C82.786 143.529 72.7478 162.542 72.5263 168.38C72.3048 174.217 78.7282 172.913 82.0506 167.652C85.373 162.382 90.6889 147.442 90.6889 147.442L82.786 143.529Z" fill="#BC8567"/>
<path d="M154.364 160.927C154.364 160.927 139.4 149.837 138.549 149.207C137.105 148.125 134.997 146.554 134.235 146.022C133.03 145.179 125.986 143.955 125.003 144.115C124.028 144.274 121.326 144.736 120.537 145.028C119.749 145.321 120.741 146.333 121.521 146.812C122.301 147.291 125.756 149.083 128.688 149.624C130.319 149.926 131.718 150.751 132.861 151.576C133.774 152.232 149.562 168.353 150.156 168.743L154.364 160.927Z" fill="#BC8567"/>
<path d="M135.838 147.318C135.838 147.318 130.203 142.039 129.362 142.119C128.529 142.199 129.123 143.387 131.337 145.188C132.091 145.801 132.897 146.768 133.57 147.087C134.89 147.708 135.838 147.318 135.838 147.318Z" fill="#BC8567"/>
<path d="M131.296 166.322L131.299 166.321C131.79 166.265 132.198 165.909 132.324 165.424L132.324 165.424L137.233 146.527L131.296 166.322ZM131.296 166.322L110.751 168.779L131.296 166.322ZM114.341 148.375L114.341 148.375L109.433 167.272C109.22 168.093 109.904 168.879 110.75 168.779L114.341 148.375ZM114.341 148.375C114.467 147.889 114.875 147.533 115.367 147.477L115.367 147.477M114.341 148.375L115.367 147.477M115.367 147.477L115.37 147.477M115.367 147.477L115.37 147.477M115.37 147.477L135.915 145.02M115.37 147.477L135.915 145.02M135.915 145.02C135.915 145.02 135.915 145.02 135.915 145.02M135.915 145.02L135.915 145.02M135.915 145.02C136.762 144.919 137.445 145.705 137.233 146.527L135.915 145.02Z" fill="#04D361" stroke="#04D361"/>
<path d="M132.268 167.448L111.723 169.905C110.527 170.047 109.561 168.938 109.862 167.776L114.77 148.879C114.948 148.196 115.523 147.69 116.223 147.61L136.769 145.153C137.965 145.011 138.931 146.12 138.63 147.282L133.721 166.179C133.544 166.854 132.968 167.359 132.268 167.448Z" fill="white"/>
<path d="M116.447 152.674L116.447 152.674L116.446 152.679C116.446 152.679 116.444 152.686 116.434 152.695C116.425 152.703 116.412 152.71 116.397 152.713L115.421 152.826L115.421 152.826C115.411 152.828 115.404 152.826 115.399 152.824C115.393 152.822 115.386 152.817 115.379 152.81C115.373 152.802 115.369 152.795 115.368 152.789C115.367 152.783 115.366 152.777 115.369 152.767L115.369 152.766L116.334 149.058L116.334 149.058L116.337 149.049C116.34 149.036 116.351 149.023 116.37 149.021L117.361 148.906L117.361 148.906C117.371 148.904 117.377 148.906 117.383 148.908C117.389 148.91 117.396 148.915 117.402 148.922C117.408 148.93 117.412 148.937 117.414 148.943C117.415 148.949 117.416 148.955 117.413 148.965L117.413 148.966L116.447 152.674ZM116.931 152.8L117.897 149.092L116.47 153.208C116.692 153.172 116.878 153.013 116.931 152.8Z" fill="#04D361" stroke="#04D361"/>
<path d="M76.3625 162.755C82.6352 163.003 102.242 162.595 104.838 161.708C105.954 161.327 108.701 160.75 109.401 159.659C110.109 158.55 110.712 156.864 111.447 156.74C112.014 156.642 111.881 158.47 111.713 159.135C111.394 160.333 111.181 160.954 110.756 161.504C110.614 161.69 115.443 162.382 118.473 161.61C120.555 161.078 120.165 162.746 118.765 163.447C118.765 163.447 119.324 164.902 117.853 165.381C117.853 165.381 118.11 166.996 116.692 167.12C116.542 167.519 116.099 168.238 114.876 168.584C113.104 169.081 110.03 169.072 107.691 169.169C106.309 169.223 79.5963 173.401 74.8741 172.212C72.9072 171.716 74.3248 162.675 76.3625 162.755Z" fill="#BC8567"/>
<path d="M94.3656 146.084C94.3656 146.084 93.9049 147.832 93.2227 149.633C92.4607 151.621 91.4242 153.661 90.4053 153.475C90.4053 153.475 76.5486 149.092 77.0093 147.673C77.3548 146.617 77.9484 145.242 78.6838 143.716C80.9785 138.943 84.6198 132.714 86.0906 130.301C91.1052 122.059 93.1607 123.106 93.1607 123.106C100.186 122.769 94.3656 146.084 94.3656 146.084Z" fill="#6842C2"/>
<path d="M93.2227 149.633C92.4607 151.621 91.4242 153.661 90.4053 153.475C90.4053 153.475 76.5486 149.092 77.0093 147.673C77.3548 146.617 77.9484 145.242 78.6838 143.716C81.2354 144.922 88.1195 148.09 93.2227 149.633Z" fill="#04D361"/>
<path d="M97.6172 188.484C97.6172 188.484 120.653 184.784 133.056 177.394C133.056 177.394 119.182 191.296 97.6172 188.484Z" fill="#47248F"/>
<path d="M384.905 276.395H325.004C322.053 276.395 319.67 274 319.67 271.054V242.07C319.67 239.116 322.062 236.729 325.004 236.729H384.905C387.855 236.729 390.238 239.124 390.238 242.07V271.046C390.247 274 387.855 276.395 384.905 276.395Z" fill="#6842C2"/>
<path d="M326.022 266.148C331.604 266.148 331.604 259.494 337.185 259.494C342.767 259.494 342.767 250.622 348.349 250.622C353.93 250.622 353.93 254.02 359.512 254.02C365.094 254.02 365.094 245.814 370.675 245.814C376.257 245.814 376.257 258.687 381.839 258.687" stroke="white" stroke-width="2" stroke-miterlimit="10" stroke-linecap="round" stroke-linejoin="round"/>
<path d="M327.652 266.148C327.652 265.252 326.926 264.525 326.031 264.525C325.136 264.525 324.41 265.252 324.41 266.148C324.41 267.044 325.136 267.771 326.031 267.771C326.926 267.771 327.652 267.044 327.652 266.148Z" fill="white"/>
<path d="M383.469 258.696C383.469 257.8 382.742 257.072 381.848 257.072C380.953 257.072 380.227 257.8 380.227 258.696C380.227 259.591 380.953 260.319 381.848 260.319C382.742 260.319 383.469 259.591 383.469 258.696Z" fill="white"/>
<path d="M38.4959 67.1156H98.326C102.331 67.1156 105.582 63.8596 105.582 59.8495V41.5644C105.582 37.5543 102.331 34.2983 98.326 34.2983H38.4959C34.4913 34.2983 31.2397 37.5543 31.2397 41.5644V59.8495C31.2397 63.8685 34.4913 67.1156 38.4959 67.1156Z" fill="#6842C2"/>
<path d="M96.6691 65.2348V73.2018L88.1371 64.667L96.6691 65.2348Z" fill="#6842C2"/>
<path d="M38.1148 42.3541H54.7003" stroke="white" stroke-width="2.2165" stroke-miterlimit="10" stroke-linecap="round" stroke-linejoin="round"/>
<path d="M60.6099 42.3541H98.7069" stroke="white" stroke-width="2.2165" stroke-miterlimit="10" stroke-linecap="round" stroke-linejoin="round"/>
<path d="M38.1148 50.7114H69.0355" stroke="white" stroke-width="2.2165" stroke-miterlimit="10" stroke-linecap="round" stroke-linejoin="round"/>
<path d="M73.7667 50.7114H82.9189" stroke="white" stroke-width="2.2165" stroke-miterlimit="10" stroke-linecap="round" stroke-linejoin="round"/>
<path d="M87.8271 50.7114H98.707" stroke="white" stroke-width="2.2165" stroke-miterlimit="10" stroke-linecap="round" stroke-linejoin="round"/>
<path d="M38.1148 59.0599H45.114" stroke="white" stroke-width="2.2165" stroke-miterlimit="10" stroke-linecap="round" stroke-linejoin="round"/>
<path d="M49.4022 59.0599H74.6526" stroke="white" stroke-width="2.2165" stroke-miterlimit="10" stroke-linecap="round" stroke-linejoin="round"/>
<path d="M410.89 37.4857H395.536C392.683 37.4857 390.371 35.1701 390.371 32.3134V16.9383C390.371 14.0816 392.683 11.766 395.536 11.766H410.89C413.743 11.766 416.055 14.0816 416.055 16.9383V32.3134C416.055 35.1701 413.743 37.4857 410.89 37.4857Z" fill="#6842C2"/>
<path d="M411.953 23.2988L411.572 21.6131C411.501 21.2848 411.164 21.0808 410.836 21.1517L409.844 21.3824C409.587 21.4445 409.33 21.3203 409.188 21.0985C408.799 20.4863 408.32 19.9363 407.771 19.475C407.549 19.2886 407.478 18.987 407.602 18.7297L408.099 17.7094C408.249 17.4078 408.116 17.0352 407.815 16.8932L406.256 16.1391C405.955 15.9883 405.582 16.1214 405.441 16.423L404.909 17.532C404.794 17.7804 404.519 17.9046 404.254 17.8691C403.926 17.8248 403.58 17.7982 403.243 17.7982C402.898 17.7982 402.561 17.8248 402.233 17.8691C401.959 17.9046 401.693 17.7804 401.578 17.532L401.046 16.423C400.896 16.1214 400.532 15.9883 400.231 16.1391L398.672 16.8932C398.371 17.044 398.238 17.4078 398.388 17.7094L398.884 18.7297C399.009 18.987 398.929 19.2886 398.716 19.475C398.167 19.9452 397.68 20.4863 397.299 21.0985C397.157 21.3203 396.9 21.4445 396.643 21.3824L395.651 21.1517C395.323 21.0808 394.995 21.2848 394.915 21.6131L394.534 23.2988C394.463 23.627 394.667 23.9553 394.995 24.0351L396.253 24.319C396.244 24.4965 396.227 24.665 396.227 24.8425C396.227 25.6853 396.377 26.5015 396.652 27.2468C396.74 27.4952 396.678 27.7791 396.466 27.9476L395.978 28.338C395.713 28.5509 395.668 28.9324 395.881 29.1986L396.909 30.556C397.121 30.8221 397.502 30.8665 397.768 30.6536L398.105 30.3785C398.335 30.2011 398.654 30.21 398.876 30.3874C399.584 30.9375 400.391 31.3633 401.277 31.6206C401.542 31.7005 401.737 31.9311 401.737 32.215V32.5699C401.737 32.907 402.012 33.1821 402.349 33.1821H404.076C404.413 33.1821 404.688 32.907 404.688 32.5699V32.215C404.688 31.9311 404.883 31.7005 405.148 31.6206C406.034 31.3633 406.841 30.9463 407.549 30.3874C407.78 30.21 408.099 30.1922 408.32 30.3785L408.657 30.6536C408.923 30.8665 409.304 30.8221 409.516 30.556L410.597 29.2075C410.81 28.9413 410.765 28.5598 410.5 28.3469L410.012 27.9565C409.8 27.7879 409.738 27.504 409.826 27.2556C410.101 26.5015 410.252 25.6942 410.252 24.8513C410.252 24.6739 410.234 24.5053 410.225 24.3279L411.483 24.044C411.82 23.9553 412.024 23.627 411.953 23.2988ZM403.217 29.2252C400.798 29.2252 398.84 27.2645 398.84 24.8425C398.84 22.4204 400.798 20.4597 403.217 20.4597C405.636 20.4597 407.594 22.4204 407.594 24.8425C407.594 27.2645 405.636 29.2252 403.217 29.2252Z" fill="white"/>
<path d="M547.16 139.31C548.733 129.612 542.157 120.477 532.473 118.904C522.788 117.332 513.662 123.918 512.089 133.615C510.516 143.313 517.092 152.448 526.776 154.021C536.46 155.593 545.586 149.007 547.16 139.31Z" fill="#6842C2"/>
<path d="M539.347 138.798C540.616 133.424 537.293 128.04 531.926 126.772C526.559 125.504 521.18 128.833 519.912 134.207C518.643 139.58 521.966 144.965 527.333 146.232C532.7 147.5 538.079 144.172 539.347 138.798Z" fill="#6842C2" stroke="white" stroke-width="2" stroke-miterlimit="10" stroke-linecap="round" stroke-linejoin="round"/>
<path d="M529.611 129.929V136.467L526.165 139.918" fill="#6842C2"/>
<path d="M529.611 129.929V136.467L526.165 139.918" stroke="white" stroke-width="2" stroke-miterlimit="10" stroke-linecap="round" stroke-linejoin="round"/>
<path d="M529.611 126.469V127.427" stroke="white" stroke-width="2" stroke-miterlimit="10" stroke-linecap="round" stroke-linejoin="round"/>
<path d="M529.611 145.517V146.466" stroke="white" stroke-width="2" stroke-miterlimit="10" stroke-linecap="round" stroke-linejoin="round"/>
<path d="M539.597 136.467H538.64" stroke="white" stroke-width="2" stroke-miterlimit="10" stroke-linecap="round" stroke-linejoin="round"/>
<path d="M520.584 136.467H519.626" stroke="white" stroke-width="2" stroke-miterlimit="10" stroke-linecap="round" stroke-linejoin="round"/>
</svg>
